                                                                        S0000001
,,31HOpen CASCADE IGES processor 7.6,13HFilename.iges,                  G0000001
16HOpen CASCADE 7.6,31HOpen CASCADE IGES processor 7.6,32,308,15,308,15,G0000002
,1.,2,2HMM,1,0.01,15H20260826.022906,1E-07,80.,13Hdanielpdiamon,,11,0,  G0000003
15H20260826.022906,;                                                    G0000004
     402       1       0       0       0       0       0       000000000D0000001
     402       0       0       1       1                               0D0000002
     144       2       0       0       0       0       0       000020000D0000003
     144       0       0       1       0                               0D0000004
     120       3       0       0       0       0       7       000010000D0000005
     120       0       0       1       0                               0D0000006
     124       4       0       0       0       0       0       000000000D0000007
     124       0       0       1       0                               0D0000008
     110       5       0       0       0       0       0       000010000D0000009
     110       0       0       1       0                               0D0000010
     110       6       0       0       0       0       0       000010000D0000011
     110       0       0       1       0                               0D0000012
     142       7       0       0       0       0       0       000010500D0000013
     142       0       0       1       0                               0D0000014
     102       8       0       0       0       0       0       000010000D0000015
     102       0       0       1       0                               0D0000016
     110       9       0       0       0       0       0       000010000D0000017
     110       0       0       1       0                               0D0000018
     110      10       0       0       0       0       0       000010000D0000019
     110       0       0       1       0                               0D0000020
     110      11       0       0       0       0       0       000010000D0000021
     110       0       0       1       0                               0D0000022
     110      12       0       0       0       0       0       000010000D0000023
     110       0       0       1       0                               0D0000024
     102      13       0       0       0       0       0       000010000D0000025
     102       0       0       1       0                               0D0000026
     110      14       0       0       0       0       0       000010000D0000027
     110       0       0       1       0                               0D0000028
     100      15       0       0       0       0      31       000010000D0000029
     100       0       0       1       0                               0D0000030
     124      16       0       0       0       0       0       000000000D0000031
     124       0       0       1       0                               0D0000032
     110      17       0       0       0       0       0       000010000D0000033
     110       0       0       1       0                               0D0000034
     100      18       0       0       0       0      37       000010000D0000035
     100       0       0       1       0                               0D0000036
     124      19       0       0       0       0       0       000000000D0000037
     124       0       0       1       0                               0D0000038
     144      20       0       0       0       0       0       000020000D0000039
     144       0       0       1       0                               0D0000040
     108      21       0       0       0       0       0       000010000D0000041
     108       0       0       1       0                               0D0000042
     142      22       0       0       0       0       0       000010500D0000043
     142       0       0       1       0                               0D0000044
     100      23       0       0       0       0      47       000010000D0000045
     100       0       0       1       0                               0D0000046
     124      24       0       0       0       0       0       000000000D0000047
     124       0       0       1       0                               0D0000048
     142      25       0       0       0       0       0       000010500D0000049
     142       0       0       1       0                               0D0000050
     100      26       0       0       0       0      53       000010000D0000051
     100       0       0       1       0                               0D0000052
     124      27       0       0       0       0       0       000000000D0000053
     124       0       0       1       0                               0D0000054
     144      28       0       0       0       0       0       000020000D0000055
     144       0       0       1       0                               0D0000056
     108      29       0       0       0       0       0       000010000D0000057
     108       0       0       1       0                               0D0000058
     142      30       0       0       0       0       0       000010500D0000059
     142       0       0       1       0                               0D0000060
     100      31       0       0       0       0      63       000010000D0000061
     100       0       0       1       0                               0D0000062
     124      32       0       0       0       0       0       000000000D0000063
     124       0       0       1       0                               0D0000064
     142      33       0       0       0       0       0       000010500D0000065
     142       0       0       1       0                               0D0000066
     100      34       0       0       0       0      69       000010000D0000067
     100       0       0       1       0                               0D0000068
     124      35       0       0       0       0       0       000000000D0000069
     124       0       0       1       0                               0D0000070
     144      36       0       0       0       0       0       000020000D0000071
     144       0       0       1       0                               0D0000072
     120      37       0       0       0       0      75       000010000D0000073
     120       0       0       1       0                               0D0000074
     124      38       0       0       0       0       0       000000000D0000075
     124       0       0       1       0                               0D0000076
     110      39       0       0       0       0       0       000010000D0000077
     110       0       0       1       0                               0D0000078
     110      40       0       0       0       0       0       000010000D0000079
     110       0       0       1       0                               0D0000080
     142      41       0       0       0       0       0       000010500D0000081
     142       0       0       1       0                               0D0000082
     102      42       0       0       0       0       0       000010000D0000083
     102       0       0       1       0                               0D0000084
     110      43       0       0       0       0       0       000010000D0000085
     110       0       0       1       0                               0D0000086
     110      44       0       0       0       0       0       000010000D0000087
     110       0       0       1       0                               0D0000088
     110      45       0       0       0       0       0       000010000D0000089
     110       0       0       1       0                               0D0000090
     110      46       0       0       0       0       0       000010000D0000091
     110       0       0       1       0                               0D0000092
     102      47       0       0       0       0       0       000010000D0000093
     102       0       0       1       0                               0D0000094
     100      48       0       0       0       0      97       000010000D0000095
     100       0       0       1       0                               0D0000096
     124      49       0       0       0       0       0       000000000D0000097
     124       0       0       1       0                               0D0000098
     110      50       0       0       0       0       0       000010000D0000099
     110       0       0       1       0                               0D0000100
     100      51       0       0       0       0     103       000010000D0000101
     100       0       0       1       0                               0D0000102
     124      52       0       0       0       0       0       000000000D0000103
     124       0       0       1       0                               0D0000104
     110      53       0       0       0       0       0       000010000D0000105
     110       0       0       1       0                               0D0000106
     144      54       0       0       0       0       0       000020000D0000107
     144       0       0       1       0                               0D0000108
     120      55       0       0       0       0     111       000010000D0000109
     120       0       0       1       0                               0D0000110
     124      56       0       0       0       0       0       000000000D0000111
     124       0       0       1       1                               0D0000112
     110      57       0       0       0       0       0       000010000D0000113
     110       0       0       1       0                               0D0000114
     110      58       0       0       0       0       0       000010000D0000115
     110       0       0       1       0                               0D0000116
     142      59       0       0       0       0       0       000010500D0000117
     142       0       0       1       0                               0D0000118
     102      60       0       0       0       0       0       000010000D0000119
     102       0       0       1       0                               0D0000120
     110      61       0       0       0       0       0       000010000D0000121
     110       0       0       1       0                               0D0000122
     110      62       0       0       0       0       0       000010000D0000123
     110       0       0       1       0                               0D0000124
     110      63       0       0       0       0       0       000010000D0000125
     110       0       0       1       0                               0D0000126
     110      64       0       0       0       0       0       000010000D0000127
     110       0       0       2       0                               0D0000128
     102      66       0       0       0       0       0       000010000D0000129
     102       0       0       1       0                               0D0000130
     110      67       0       0       0       0       0       000010000D0000131
     110       0       0       1       0                               0D0000132
     100      68       0       0       0       0     135       000010000D0000133
     100       0       0       1       0                               0D0000134
     124      69       0       0       0       0       0       000000000D0000135
     124       0       0       1       0                               0D0000136
     110      70       0       0       0       0       0       000010000D0000137
     110       0       0       1       0                               0D0000138
     100      71       0       0       0       0     141       000010000D0000139
     100       0       0       1       0                               0D0000140
     124      72       0       0       0       0       0       000000000D0000141
     124       0       0       1       0                               0D0000142
     144      73       0       0       0       0       0       000020000D0000143
     144       0       0       1       0                               0D0000144
     108      74       0       0       0       0       0       000010000D0000145
     108       0       0       1       0                               0D0000146
     142      75       0       0       0       0       0       000010500D0000147
     142       0       0       1       0                               0D0000148
     100      76       0       0       0       0     151       000010000D0000149
     100       0       0       1       0                               0D0000150
     124      77       0       0       0       0       0       000000000D0000151
     124       0       0       1       0                               0D0000152
     142      78       0       0       0       0       0       000010500D0000153
     142       0       0       1       0                               0D0000154
     100      79       0       0       0       0     157       000010000D0000155
     100       0       0       1       0                               0D0000156
     124      80       0       0       0       0       0       000000000D0000157
     124       0       0       1       0                               0D0000158
     144      81       0       0       0       0       0       000020000D0000159
     144       0       0       1       0                               0D0000160
     108      82       0       0       0       0       0       000010000D0000161
     108       0       0       1       0                               0D0000162
     142      83       0       0       0       0       0       000010500D0000163
     142       0       0       1       0                               0D0000164
     100      84       0       0       0       0     167       000010000D0000165
     100       0       0       1       0                               0D0000166
     124      85       0       0       0       0       0       000000000D0000167
     124       0       0       1       0                               0D0000168
     142      86       0       0       0       0       0       000010500D0000169
     142       0       0       1       0                               0D0000170
     100      87       0       0       0       0     173       000010000D0000171
     100       0       0       1       0                               0D0000172
     124      88       0       0       0       0       0       000000000D0000173
     124       0       0       1       0                               0D0000174
     144      89       0       0       0       0       0       000020000D0000175
     144       0       0       1       0                               0D0000176
     120      90       0       0       0       0     179       000010000D0000177
     120       0       0       1       0                               0D0000178
     124      91       0       0       0       0       0       000000000D0000179
     124       0       0       1       0                               0D0000180
     110      92       0       0       0       0       0       000010000D0000181
     110       0       0       1       0                               0D0000182
     110      93       0       0       0       0       0       000010000D0000183
     110       0       0       1       0                               0D0000184
     142      94       0       0       0       0       0       000010500D0000185
     142       0       0       1       0                               0D0000186
     102      95       0       0       0       0       0       000010000D0000187
     102       0       0       1       0                               0D0000188
     110      96       0       0       0       0       0       000010000D0000189
     110       0       0       1       0                               0D0000190
     110      97       0       0       0       0       0       000010000D0000191
     110       0       0       1       0                               0D0000192
     110      98       0       0       0       0       0       000010000D0000193
     110       0       0       1       0                               0D0000194
     110      99       0       0       0       0       0       000010000D0000195
     110       0       0       1       0                               0D0000196
     102     100       0       0       0       0       0       000010000D0000197
     102       0       0       1       0                               0D0000198
     100     101       0       0       0       0     201       000010000D0000199
     100       0       0       1       0                               0D0000200
     124     102       0       0       0       0       0       000000000D0000201
     124       0       0       1       0                               0D0000202
     110     103       0       0       0       0       0       000010000D0000203
     110       0       0       1       0                               0D0000204
     100     104       0       0       0       0     207       000010000D0000205
     100       0       0       1       0                               0D0000206
     124     105       0       0       0       0       0       000000000D0000207
     124       0       0       1       0                               0D0000208
     110     106       0       0       0       0       0       000010000D0000209
     110       0       0       1       0                               0D0000210
402,8,3,39,55,71,107,143,159,175;                                0000001P0000001
144,5,1,0,13;                                                    0000003P0000002
120,9,11,0.,6.283185307;                                         0000005P0000003
124,0.,0.,1.,0.,0.,-1.,0.,0.,1.,0.,0.,0.;                        0000007P0000004
110,0.,0.,1.,0.,0.,0.;                                           0000009P0000005
110,15.,0.,35.,15.,0.,80.;                                       0000011P0000006
142,0,5,15,25,3;                                                 0000013P0000007
102,4,17,19,21,23;                                               0000015P0000008
110,1.578983857E-16,1.554312234E-15,0.,1.,1.154631946E-14,0.;    0000017P0000009
110,1.,9.769962617E-15,0.,1.,6.283185307,0.;                     0000019P0000010
110,1.,6.283185307,0.,1.578983857E-16,6.283185307,0.;            0000021P0000011
110,0.,6.283185307,0.,-3.100327554E-17,0.,0.;                    0000023P0000012
102,4,27,29,33,35;                                               0000025P0000013
110,35.,3.673940397E-15,15.,80.,3.673940397E-15,15.;             0000027P0000014
100,0.,0.,0.,15.,0.,15.,0.;                                      0000029P0000015
124,0.,0.,-1.,80.,0.,1.,0.,0.,1.,0.,-0.,0.;                      0000031P0000016
110,80.,3.673940397E-15,15.,35.,3.673940397E-15,15.;             0000033P0000017
100,0.,0.,0.,15.,0.,15.,0.;                                      0000035P0000018
124,0.,0.,1.,35.,0.,-1.,0.,0.,1.,0.,0.,0.;                       0000037P0000019
144,41,1,1,43,49;                                                0000039P0000020
108,1.,0.,0.,35.,0,35.,0.,0.,0.;                                 0000041P0000021
142,0,41,0,45,2;                                                 0000043P0000022
100,0.,0.,0.,25.,0.,25.,0.;                                      0000045P0000023
124,0.,0.,1.,35.,0.,-1.,0.,0.,1.,0.,0.,0.;                       0000047P0000024
142,0,41,0,51,2;                                                 0000049P0000025
100,0.,0.,0.,15.,0.,15.,0.;                                      0000051P0000026
124,0.,0.,-1.,35.,0.,1.,0.,0.,1.,0.,-0.,0.;                      0000053P0000027
144,57,1,1,59,65;                                                0000055P0000028
108,1.,0.,0.,80.,0,80.,0.,0.,0.;                                 0000057P0000029
142,0,57,0,61,2;                                                 0000059P0000030
100,0.,0.,0.,15.,0.,15.,0.;                                      0000061P0000031
124,0.,0.,1.,80.,0.,-1.,0.,0.,1.,0.,0.,0.;                       0000063P0000032
142,0,57,0,67,2;                                                 0000065P0000033
100,0.,0.,0.,9.,0.,9.,0.;                                        0000067P0000034
124,0.,0.,-1.,80.,0.,1.,0.,0.,1.,0.,-0.,0.;                      0000069P0000035
144,73,1,0,81;                                                   0000071P0000036
120,77,79,0.,6.283185307;                                        0000073P0000037
124,0.,0.,1.,20.,0.,-1.,0.,0.,1.,0.,0.,0.;                       0000075P0000038
110,0.,0.,1.,0.,0.,0.;                                           0000077P0000039
110,25.,0.,0.,25.,0.,15.;                                        0000079P0000040
142,0,73,83,93,3;                                                0000081P0000041
102,4,85,87,89,91;                                               0000083P0000042
110,1.,3.552713679E-15,0.,1.,6.283185307,0.;                     0000085P0000043
110,1.,6.283185307,0.,0.,6.283185307,0.;                         0000087P0000044
110,0.,6.283185307,0.,-9.300982661E-17,0.,0.;                    0000089P0000045
110,-9.300982661E-17,1.776356839E-15,0.,1.,5.107025913E-15,0.;   0000091P0000046
102,4,95,99,101,105;                                             0000093P0000047
100,0.,0.,0.,25.,0.,25.,0.;                                      0000095P0000048
124,0.,0.,-1.,35.,0.,1.,0.,0.,1.,0.,-0.,0.;                      0000097P0000049
110,35.,6.123233996E-15,25.,20.,6.123233996E-15,25.;             0000099P0000050
100,0.,0.,0.,25.,0.,25.,0.;                                      0000101P0000051
124,0.,0.,1.,20.,0.,-1.,0.,0.,1.,0.,0.,0.;                       0000103P0000052
110,20.,6.123233996E-15,25.,35.,6.123233996E-15,25.;             0000105P0000053
144,109,1,0,117;                                                 0000107P0000054
120,113,115,0.,6.283185307;                                      0000109P0000055
124,0.,0.,1.,-5.,0.,1.,0.,0.,1.,0.,0.,0.;                        0000111P0000056
110,0.,0.,1.,0.,0.,0.;                                           0000113P0000057
110,9.,0.,5.,9.,0.,85.;                                          0000115P0000058
142,0,109,119,129,3;                                             0000117P0000059
102,4,121,123,125,127;                                           0000119P0000060
110,-1.110223025E-17,1.998401444E-15,0.,1.,1.976196984E-14,0.;   0000121P0000061
110,1.,1.953992523E-14,0.,1.,6.283185307,0.;                     0000123P0000062
110,1.,6.283185307,0.,1.110223025E-17,6.283185307,0.;            0000125P0000063
110,6.162975822E-33,6.283185307,0.,-1.743934249E-17,             0000127P0000064
1.776356839E-15,0.;                                              0000127P0000065
102,4,131,133,137,139;                                           0000129P0000066
110,0.,2.204364238E-15,9.,80.,2.204364238E-15,9.;                0000131P0000067
100,0.,0.,0.,9.,0.,9.,0.;                                        0000133P0000068
124,0.,0.,1.,80.,0.,-1.,0.,0.,1.,0.,0.,0.;                       0000135P0000069
110,80.,2.204364238E-15,9.,0.,2.204364238E-15,9.;                0000137P0000070
100,0.,0.,0.,9.,0.,9.,0.;                                        0000139P0000071
124,0.,0.,-1.,0.,0.,1.,0.,0.,1.,0.,-0.,0.;                       0000141P0000072
144,145,1,1,147,153;                                             0000143P0000073
108,-1.,-0.,-0.,-20.,0,20.,0.,0.,0.;                             0000145P0000074
142,0,145,0,149,2;                                               0000147P0000075
100,0.,0.,0.,25.,0.,25.,0.;                                      0000149P0000076
124,0.,0.,-1.,20.,0.,1.,0.,0.,1.,0.,-0.,0.;                      0000151P0000077
142,0,145,0,155,2;                                               0000153P0000078
100,0.,0.,0.,15.,0.,15.,0.;                                      0000155P0000079
124,0.,0.,1.,20.,0.,-1.,0.,0.,1.,0.,0.,0.;                       0000157P0000080
144,161,1,1,163,169;                                             0000159P0000081
108,-1.,-0.,-0.,-0.,0,0.,0.,0.,0.;                               0000161P0000082
142,0,161,0,165,2;                                               0000163P0000083
100,0.,0.,0.,15.,0.,15.,0.;                                      0000165P0000084
124,0.,0.,-1.,0.,0.,1.,0.,0.,1.,0.,-0.,0.;                       0000167P0000085
142,0,161,0,171,2;                                               0000169P0000086
100,0.,0.,0.,9.,0.,9.,0.;                                        0000171P0000087
124,0.,0.,1.,0.,0.,-1.,0.,0.,1.,0.,0.,0.;                        0000173P0000088
144,177,1,0,185;                                                 0000175P0000089
120,181,183,0.,6.283185307;                                      0000177P0000090
124,0.,0.,1.,0.,0.,-1.,0.,0.,1.,0.,0.,0.;                        0000179P0000091
110,0.,0.,1.,0.,0.,0.;                                           0000181P0000092
110,15.,0.,0.,15.,0.,20.;                                        0000183P0000093
142,0,177,187,197,3;                                             0000185P0000094
102,4,189,191,193,195;                                           0000187P0000095
110,1.,4.440892099E-15,0.,1.,6.283185307,0.;                     0000189P0000096
110,1.,6.283185307,0.,0.,6.283185307,0.;                         0000191P0000097
110,0.,6.283185307,0.,-6.975736996E-17,0.,0.;                    0000193P0000098
110,-6.975736996E-17,1.776356839E-15,0.,1.,6.217248938E-15,0.;   0000195P0000099
102,4,199,203,205,209;                                           0000197P0000100
100,0.,0.,0.,15.,0.,15.,0.;                                      0000199P0000101
124,0.,0.,-1.,20.,0.,1.,0.,0.,1.,0.,-0.,0.;                      0000201P0000102
110,20.,3.673940397E-15,15.,0.,3.673940397E-15,15.;              0000203P0000103
100,0.,0.,0.,15.,0.,15.,0.;                                      0000205P0000104
124,0.,0.,1.,0.,0.,-1.,0.,0.,1.,0.,0.,0.;                        0000207P0000105
110,0.,3.673940397E-15,15.,20.,3.673940397E-15,15.;              0000209P0000106
S      1G      4D    210P    106                                        T0000001
