DBRep_DrawableShape

CASCADE Topology V3, (c) Open Cascade
Locations 0
Curve2ds 22
1 6.2831853071795862 -0 0 1 
1 0 -0 0 1 
1 0 35 1 0 
2 0 0 1 0 -0 1 15
1 0 80 1 0 
2 0 0 1 0 -0 1 15
1 0 15 1 0 
2 0 0 1 0 -0 1 25
2 0 0 1 0 -0 1 9
1 0 85 1 0 
1 6.2831853071795862 -0 0 1 
1 0 -0 0 1 
1 0 0 1 0 
2 0 0 1 0 -0 1 25
1 6.2831853071795862 -0 0 1 
1 0 -0 0 1 
2 0 0 1 0 -0 1 9
1 0 5 1 0 
1 0 20 1 0 
2 0 0 1 0 -0 1 15
1 0 0 1 0 
2 0 0 1 0 -0 1 15
Curves 11
1 0 3.67394039744206e-15 15 1 0 0 
2 35 0 0 1 0 0 -0 0 1 0 -1 0 15
2 80 0 0 1 0 0 -0 0 1 0 -1 0 15
2 35 0 0 1 0 0 -0 0 1 0 -1 0 25
2 80 0 0 1 0 0 -0 0 1 0 -1 0 9
1 20 6.1232339957367661e-15 25 1 0 0 
2 20 0 0 1 0 0 -0 0 1 0 -1 0 25
1 -5 2.2043642384652358e-15 9 1 0 0 
2 0 0 0 1 0 0 -0 0 1 0 -1 0 9
2 20 0 0 1 0 0 -0 0 1 0 -1 0 15
2 0 0 0 1 0 0 -0 0 1 0 -1 0 15
Polygon3D 0
PolygonOnTriangulations 0
Surfaces 7
2 0 0 0 1 0 0 -0 0 1 0 -1 0 15
1 35 0 0 1 0 0 -0 0 1 0 -1 0 
1 80 0 0 1 0 0 -0 0 1 0 -1 0 
2 20 0 0 1 0 0 -0 0 1 0 -1 0 25
2 -5 0 0 1 0 0 -0 0 1 0 -1 0 9
1 20 0 0 1 0 0 -0 0 1 0 -1 0 
1 0 0 0 1 0 0 -0 0 1 0 -1 0 
Triangulations 0

TShapes 43
Ve
1.0000000367394e-07
35 3.67394039744206e-15 15
0 0

0101101
*
Ve
1e-07
80 3.67394039744206e-15 15
0 0

0101101
*
Ed
 1e-07 1 1 0
1  1 0 35 80
3  1 2CN 1 0 35 80
0

0101000
+43 0 -42 0 *
Ed
 1e-07 1 1 0
1  2 0 0 6.28318530717959
2  3 1 0 0 6.28318530717959
2  4 2 0 0 6.28318530717959
0

0101000
+43 0 -43 0 *
Ed
 1e-07 1 1 0
1  3 0 0 6.28318530717959
2  5 1 0 0 6.28318530717959
2  6 3 0 0 6.28318530717959
0

0101000
+42 0 -42 0 *
Wi

0101100
+41 0 +40 0 -41 0 -39 0 *
Fa
0  1e-07 1 0

0101000
+38 0 *
Ve
1e-07
35 6.12323399573677e-15 25
0 0

0101101
*
Ed
 1e-07 1 1 0
1  4 0 0 6.28318530717959
2  7 4 0 0 6.28318530717959
2  8 2 0 0 6.28318530717959
0

0101000
+36 0 -36 0 *
Wi

0101100
+35 0 *
Wi

0101100
-40 0 *
Fa
0  1e-07 2 0

0101000
+34 0 +33 0 *
Wi

0101100
+39 0 *
Ve
1.00000002204364e-07
80 2.20436423846524e-15 9
0 0

0101101
*
Ed
 1e-07 1 1 0
1  5 0 0 6.28318530717959
2  9 3 0 0 6.28318530717959
2  10 5 0 0 6.28318530717959
0

0101000
+30 0 -30 0 *
Wi

0101100
-29 0 *
Fa
0  1e-07 3 0

0101000
+31 0 +28 0 *
Ve
1e-07
20 6.12323399573677e-15 25
0 0

0101101
*
Ed
 1e-07 1 1 0
1  6 0 0 15
3  11 12CN 4 0 0 15
0

0101000
-36 0 +26 0 *
Ed
 1e-07 1 1 0
1  7 0 0 6.28318530717959
2  13 4 0 0 6.28318530717959
2  14 6 0 0 6.28318530717959
0

0101000
+26 0 -26 0 *
Wi

0101100
-35 0 +25 0 +24 0 -25 0 *
Fa
0  1e-07 4 0

0111000
+23 0 *
Ve
1.00000002204364e-07
0 2.20436423846524e-15 9
0 0

0101101
*
Ed
 1e-07 1 1 0
1  8 0 5 85
3  15 16CN 5 0 5 85
0

0101000
+21 0 -30 0 *
Ed
 1e-07 1 1 0
1  9 0 0 6.28318530717959
2  17 7 0 0 6.28318530717959
2  18 5 0 0 6.28318530717959
0

0101000
+21 0 -21 0 *
Wi

0101100
-29 0 +20 0 +19 0 -20 0 *
Fa
0  1e-07 5 0

0101000
+18 0 *
Wi

0101100
+24 0 *
Ve
1.0000000367394e-07
20 3.67394039744206e-15 15
0 0

0101101
*
Ed
 1e-07 1 1 0
1  10 0 0 6.28318530717959
2  19 1 0 0 6.28318530717959
2  20 6 0 0 6.28318530717959
0

0101000
+15 0 -15 0 *
Wi

0101100
-14 0 *
Fa
0  1e-07 6 0

0101000
+16 0 +13 0 *
Ve
1e-07
0 3.67394039744206e-15 15
0 0

0101101
*
Ed
 1e-07 1 1 0
1  11 0 0 6.28318530717959
2  21 1 0 0 6.28318530717959
2  22 7 0 0 6.28318530717959
0

0101000
+11 0 -11 0 *
Wi

0101100
+10 0 *
Wi

0101100
-19 0 *
Fa
0  1e-07 7 0

0101000
+9 0 +8 0 *
Ed
 1e-07 1 1 0
1  1 0 0 20
3  1 2CN 1 0 0 20
0

0101000
+11 0 -15 0 *
Wi

0101100
-14 0 +6 0 +10 0 -6 0 *
Fa
0  1e-07 1 0

0101000
+5 0 *
Sh

0101100
+37 0 +32 0 +27 0 +22 0 -17 0 -12 0 -7 0 +4 0 *
So

0100000
+3 0 *
Co

1100000
+2 0 *

+1 0 