                                                                        S0000001
,,31HOpen CASCADE IGES processor 7.6,13HFilename.iges,                  G0000001
16HOpen CASCADE 7.6,31HOpen CASCADE IGES processor 7.6,32,308,15,308,15,G0000002
,1.,2,2HMM,1,0.01,15H20260826.022905,1E-07,100.,13Hdanielpdiamon,,11,0, G0000003
15H20260826.022905,;                                                    G0000004
     402       1       0       0       0       0       0       000000000D0000001
     402       0       0       1       1                               0D0000002
     144       2       0       0       0       0       0       000020000D0000003
     144       0       0       1       0                               0D0000004
     108       3       0       0       0       0       0       000010000D0000005
     108       0       0       1       0                               0D0000006
     142       4       0       0       0       0       0       000010500D0000007
     142       0       0       1       0                               0D0000008
     102       5       0       0       0       0       0       000010000D0000009
     102       0       0       1       0                               0D0000010
     110       6       0       0       0       0       0       000010000D0000011
     110       0       0       1       0                               0D0000012
     110       7       0       0       0       0       0       000010000D0000013
     110       0       0       1       0                               0D0000014
     110       8       0       0       0       0       0       000010000D0000015
     110       0       0       1       0                               0D0000016
     110       9       0       0       0       0       0       000010000D0000017
     110       0       0       1       0                               0D0000018
     110      10       0       0       0       0       0       000010000D0000019
     110       0       0       1       0                               0D0000020
     110      11       0       0       0       0       0       000010000D0000021
     110       0       0       1       0                               0D0000022
     110      12       0       0       0       0       0       000010000D0000023
     110       0       0       1       0                               0D0000024
     110      13       0       0       0       0       0       000010000D0000025
     110       0       0       1       0                               0D0000026
     144      14       0       0       0       0       0       000020000D0000027
     144       0       0       1       0                               0D0000028
     108      15       0       0       0       0       0       000010000D0000029
     108       0       0       1       0                               0D0000030
     142      16       0       0       0       0       0       000010500D0000031
     142       0       0       1       0                               0D0000032
     102      17       0       0       0       0       0       000010000D0000033
     102       0       0       1       0                               0D0000034
     110      18       0       0       0       0       0       000010000D0000035
     110       0       0       1       0                               0D0000036
     110      19       0       0       0       0       0       000010000D0000037
     110       0       0       1       0                               0D0000038
     110      20       0       0       0       0       0       000010000D0000039
     110       0       0       1       0                               0D0000040
     110      21       0       0       0       0       0       000010000D0000041
     110       0       0       1       0                               0D0000042
     144      22       0       0       0       0       0       000020000D0000043
     144       0       0       1       0                               0D0000044
     108      23       0       0       0       0       0       000010000D0000045
     108       0       0       1       0                               0D0000046
     142      24       0       0       0       0       0       000010500D0000047
     142       0       0       1       0                               0D0000048
     102      25       0       0       0       0       0       000010000D0000049
     102       0       0       1       0                               0D0000050
     110      26       0       0       0       0       0       000010000D0000051
     110       0       0       1       0                               0D0000052
     110      27       0       0       0       0       0       000010000D0000053
     110       0       0       1       0                               0D0000054
     110      28       0       0       0       0       0       000010000D0000055
     110       0       0       1       0                               0D0000056
     110      29       0       0       0       0       0       000010000D0000057
     110       0       0       1       0                               0D0000058
     144      30       0       0       0       0       0       000020000D0000059
     144       0       0       1       0                               0D0000060
     108      31       0       0       0       0       0       000010000D0000061
     108       0       0       1       0                               0D0000062
     142      32       0       0       0       0       0       000010500D0000063
     142       0       0       1       0                               0D0000064
     102      33       0       0       0       0       0       000010000D0000065
     102       0       0       1       0                               0D0000066
     110      34       0       0       0       0       0       000010000D0000067
     110       0       0       1       0                               0D0000068
     110      35       0       0       0       0       0       000010000D0000069
     110       0       0       1       0                               0D0000070
     110      36       0       0       0       0       0       000010000D0000071
     110       0       0       1       0                               0D0000072
     110      37       0       0       0       0       0       000010000D0000073
     110       0       0       1       0                               0D0000074
     144      38       0       0       0       0       0       000020000D0000075
     144       0       0       1       0                               0D0000076
     108      39       0       0       0       0       0       000010000D0000077
     108       0       0       1       0                               0D0000078
     142      40       0       0       0       0       0       000010500D0000079
     142       0       0       1       0                               0D0000080
     102      41       0       0       0       0       0       000010000D0000081
     102       0       0       1       0                               0D0000082
     110      42       0       0       0       0       0       000010000D0000083
     110       0       0       1       0                               0D0000084
     110      43       0       0       0       0       0       000010000D0000085
     110       0       0       1       0                               0D0000086
     110      44       0       0       0       0       0       000010000D0000087
     110       0       0       1       0                               0D0000088
     110      45       0       0       0       0       0       000010000D0000089
     110       0       0       1       0                               0D0000090
     144      46       0       0       0       0       0       000020000D0000091
     144       0       0       1       0                               0D0000092
     108      47       0       0       0       0       0       000010000D0000093
     108       0       0       1       0                               0D0000094
     142      48       0       0       0       0       0       000010500D0000095
     142       0       0       1       0                               0D0000096
     102      49       0       0       0       0       0       000010000D0000097
     102       0       0       1       0                               0D0000098
     110      50       0       0       0       0       0       000010000D0000099
     110       0       0       1       0                               0D0000100
     110      51       0       0       0       0       0       000010000D0000101
     110       0       0       1       0                               0D0000102
     110      52       0       0       0       0       0       000010000D0000103
     110       0       0       1       0                               0D0000104
     110      53       0       0       0       0       0       000010000D0000105
     110       0       0       1       0                               0D0000106
     144      54       0       0       0       0       0       000020000D0000107
     144       0       0       1       0                               0D0000108
     108      55       0       0       0       0       0       000010000D0000109
     108       0       0       1       0                               0D0000110
     142      56       0       0       0       0       0       000010500D0000111
     142       0       0       1       0                               0D0000112
     102      57       0       0       0       0       0       000010000D0000113
     102       0       0       1       0                               0D0000114
     110      58       0       0       0       0       0       000010000D0000115
     110       0       0       1       0                               0D0000116
     110      59       0       0       0       0       0       000010000D0000117
     110       0       0       1       0                               0D0000118
     110      60       0       0       0       0       0       000010000D0000119
     110       0       0       1       0                               0D0000120
     110      61       0       0       0       0       0       000010000D0000121
     110       0       0       1       0                               0D0000122
     144      62       0       0       0       0       0       000020000D0000123
     144       0       0       1       0                               0D0000124
     108      63       0       0       0       0       0       000010000D0000125
     108       0       0       1       0                               0D0000126
     142      64       0       0       0       0       0       000010500D0000127
     142       0       0       1       0                               0D0000128
     102      65       0       0       0       0       0       000010000D0000129
     102       0       0       1       0                               0D0000130
     110      66       0       0       0       0       0       000010000D0000131
     110       0       0       1       0                               0D0000132
     110      67       0       0       0       0       0       000010000D0000133
     110       0       0       1       0                               0D0000134
     110      68       0       0       0       0       0       000010000D0000135
     110       0       0       1       0                               0D0000136
     110      69       0       0       0       0       0       000010000D0000137
     110       0       0       1       0                               0D0000138
     144      70       0       0       0       0       0       000020000D0000139
     144       0       0       1       0                               0D0000140
     108      71       0       0       0       0       0       000010000D0000141
     108       0       0       1       0                               0D0000142
     142      72       0       0       0       0       0       000010500D0000143
     142       0       0       1       0                               0D0000144
     102      73       0       0       0       0       0       000010000D0000145
     102       0       0       1       0                               0D0000146
     110      74       0       0       0       0       0       000010000D0000147
     110       0       0       1       0                               0D0000148
     110      75       0       0       0       0       0       000010000D0000149
     110       0       0       1       0                               0D0000150
     110      76       0       0       0       0       0       000010000D0000151
     110       0       0       1       0                               0D0000152
     110      77       0       0       0       0       0       000010000D0000153
     110       0       0       1       0                               0D0000154
     144      78       0       0       0       0       0       000020000D0000155
     144       0       0       1       0                               0D0000156
     108      79       0       0       0       0       0       000010000D0000157
     108       0       0       1       0                               0D0000158
     142      80       0       0       0       0       0       000010500D0000159
     142       0       0       1       0                               0D0000160
     102      81       0       0       0       0       0       000010000D0000161
     102       0       0       1       0                               0D0000162
     110      82       0       0       0       0       0       000010000D0000163
     110       0       0       1       0                               0D0000164
     110      83       0       0       0       0       0       000010000D0000165
     110       0       0       1       0                               0D0000166
     110      84       0       0       0       0       0       000010000D0000167
     110       0       0       1       0                               0D0000168
     110      85       0       0       0       0       0       000010000D0000169
     110       0       0       1       0                               0D0000170
     110      86       0       0       0       0       0       000010000D0000171
     110       0       0       1       0                               0D0000172
     110      87       0       0       0       0       0       000010000D0000173
     110       0       0       1       0                               0D0000174
     110      88       0       0       0       0       0       000010000D0000175
     110       0       0       1       0                               0D0000176
     110      89       0       0       0       0       0       000010000D0000177
     110       0       0       1       0                               0D0000178
402,10,3,27,43,59,75,91,107,123,139,155;                         0000001P0000001
144,5,1,0,7;                                                     0000003P0000002
108,-1.,-0.,0.,0.,0,0.,0.,0.,0.;                                 0000005P0000003
142,0,5,0,9,2;                                                   0000007P0000004
102,8,11,13,15,17,19,21,23,25;                                   0000009P0000005
110,0.,7.,6.,0.,0.,6.;                                           0000011P0000006
110,0.,0.,6.,0.,0.,20.;                                          0000013P0000007
110,0.,0.,20.,0.,20.,20.;                                        0000015P0000008
110,0.,20.,20.,0.,20.,6.;                                        0000017P0000009
110,0.,20.,6.,0.,13.,6.;                                         0000019P0000010
110,0.,13.,6.,0.,13.,0.;                                         0000021P0000011
110,0.,13.,0.,0.,7.,0.;                                          0000023P0000012
110,0.,7.,0.,0.,7.,6.;                                           0000025P0000013
144,29,1,0,31;                                                   0000027P0000014
108,0.,-1.,-0.,0.,0,0.,0.,0.,0.;                                 0000029P0000015
142,0,29,0,33,2;                                                 0000031P0000016
102,4,35,37,39,41;                                               0000033P0000017
110,0.,0.,20.,0.,0.,6.;                                          0000035P0000018
110,0.,0.,6.,100.,0.,6.;                                         0000037P0000019
110,100.,0.,6.,100.,0.,20.;                                      0000039P0000020
110,100.,0.,20.,0.,0.,20.;                                       0000041P0000021
144,45,1,0,47;                                                   0000043P0000022
108,0.,0.,1.,20.,0,0.,0.,20.,0.;                                 0000045P0000023
142,0,45,0,49,2;                                                 0000047P0000024
102,4,51,53,55,57;                                               0000049P0000025
110,0.,20.,20.,0.,0.,20.;                                        0000051P0000026
110,0.,0.,20.,100.,0.,20.;                                       0000053P0000027
110,100.,0.,20.,100.,20.,20.;                                    0000055P0000028
110,100.,20.,20.,0.,20.,20.;                                     0000057P0000029
144,61,1,0,63;                                                   0000059P0000030
108,-0.,1.,0.,20.,0,0.,20.,0.,0.;                                0000061P0000031
142,0,61,0,65,2;                                                 0000063P0000032
102,4,67,69,71,73;                                               0000065P0000033
110,100.,20.,6.,0.,20.,6.;                                       0000067P0000034
110,0.,20.,6.,0.,20.,20.;                                        0000069P0000035
110,0.,20.,20.,100.,20.,20.;                                     0000071P0000036
110,100.,20.,20.,100.,20.,6.;                                    0000073P0000037
144,77,1,0,79;                                                   0000075P0000038
108,-0.,-0.,-1.,-6.,0,0.,13.,6.,0.;                              0000077P0000039
142,0,77,0,81,2;                                                 0000079P0000040
102,4,83,85,87,89;                                               0000081P0000041
110,100.,13.,6.,0.,13.,6.;                                       0000083P0000042
110,0.,13.,6.,0.,20.,6.;                                         0000085P0000043
110,0.,20.,6.,100.,20.,6.;                                       0000087P0000044
110,100.,20.,6.,100.,13.,6.;                                     0000089P0000045
144,93,1,0,95;                                                   0000091P0000046
108,-0.,1.,0.,13.,0,0.,13.,0.,0.;                                0000093P0000047
142,0,93,0,97,2;                                                 0000095P0000048
102,4,99,101,103,105;                                            0000097P0000049
110,100.,13.,0.,0.,13.,0.;                                       0000099P0000050
110,0.,13.,0.,0.,13.,6.;                                         0000101P0000051
110,0.,13.,6.,100.,13.,6.;                                       0000103P0000052
110,100.,13.,6.,100.,13.,0.;                                     0000105P0000053
144,109,1,0,111;                                                 0000107P0000054
108,-0.,-0.,-1.,-0.,0,0.,0.,0.,0.;                               0000109P0000055
142,0,109,0,113,2;                                               0000111P0000056
102,4,115,117,119,121;                                           0000113P0000057
110,100.,7.,0.,0.,7.,0.;                                         0000115P0000058
110,0.,7.,0.,0.,13.,0.;                                          0000117P0000059
110,0.,13.,0.,100.,13.,0.;                                       0000119P0000060
110,100.,13.,0.,100.,7.,0.;                                      0000121P0000061
144,125,1,0,127;                                                 0000123P0000062
108,0.,-1.,-0.,-7.,0,0.,7.,0.,0.;                                0000125P0000063
142,0,125,0,129,2;                                               0000127P0000064
102,4,131,133,135,137;                                           0000129P0000065
110,0.,7.,6.,0.,7.,0.;                                           0000131P0000066
110,0.,7.,0.,100.,7.,0.;                                         0000133P0000067
110,100.,7.,0.,100.,7.,6.;                                       0000135P0000068
110,100.,7.,6.,0.,7.,6.;                                         0000137P0000069
144,141,1,0,143;                                                 0000139P0000070
108,-0.,-0.,-1.,-6.,0,0.,0.,6.,0.;                               0000141P0000071
142,0,141,0,145,2;                                               0000143P0000072
102,4,147,149,151,153;                                           0000145P0000073
110,100.,0.,6.,0.,0.,6.;                                         0000147P0000074
110,0.,0.,6.,0.,7.,6.;                                           0000149P0000075
110,0.,7.,6.,100.,7.,6.;                                         0000151P0000076
110,100.,7.,6.,100.,0.,6.;                                       0000153P0000077
144,157,1,0,159;                                                 0000155P0000078
108,1.,0.,-0.,100.,0,100.,0.,0.,0.;                              0000157P0000079
142,0,157,0,161,2;                                               0000159P0000080
102,8,163,165,167,169,171,173,175,177;                           0000161P0000081
110,100.,0.,20.,100.,0.,6.;                                      0000163P0000082
110,100.,0.,6.,100.,7.,6.;                                       0000165P0000083
110,100.,7.,6.,100.,7.,0.;                                       0000167P0000084
110,100.,7.,0.,100.,13.,0.;                                      0000169P0000085
110,100.,13.,0.,100.,13.,6.;                                     0000171P0000086
110,100.,13.,6.,100.,20.,6.;                                     0000173P0000087
110,100.,20.,6.,100.,20.,20.;                                    0000175P0000088
110,100.,20.,20.,100.,0.,20.;                                    0000177P0000089
S      1G      4D    178P     89                                        T0000001
