DBRep_DrawableShape

CASCADE Topology V3, (c) Open Cascade
Locations 0
Curve2ds 60
1 0 0 1 0 
1 0 0 1 0 
1 20 0 0 -1 
1 0 0 0 1 
1 0 -20 1 0 
1 0 0 1 0 
1 6 0 0 -1 
1 0 0 0 1 
1 6 -13 0 -1 
1 0 0 1 0 
1 0 0 1 0 
1 0 -13 1 0 
1 0 0 0 -1 
1 0 0 0 1 
1 0 -7 1 0 
1 0 0 1 0 
1 0 -7 1 0 
1 6 0 0 -1 
1 0 0 0 1 
1 6 0 0 -1 
1 6 0 0 1 
1 0 0 1 0 
1 6 0 0 1 
1 0 0 1 0 
1 0 100 1 0 
1 20 0 0 1 
1 0 0 1 0 
1 20 0 0 1 
1 0 20 1 0 
1 20 0 0 -1 
1 100 0 0 1 
1 6 0 0 1 
1 0 7 1 0 
1 6 0 0 1 
1 0 -20 1 0 
1 0 100 1 0 
1 6 0 0 -1 
1 100 0 0 1 
1 6 -13 0 -1 
1 6 0 0 1 
1 0 0 1 0 
1 0 0 0 1 
1 0 0 1 0 
1 0 13 1 0 
1 0 0 1 0 
1 0 100 1 0 
1 0 -13 1 0 
1 0 0 0 -1 
1 100 0 0 1 
1 0 0 0 1 
1 0 7 1 0 
1 0 7 1 0 
1 0 -7 1 0 
1 0 100 1 0 
1 0 -7 1 0 
1 6 0 0 1 
1 0 7 1 0 
1 6 0 0 -1 
1 100 0 0 1 
1 6 0 0 -1 
Curves 24
1 0 0 0 0 0 1 
1 0 0 20 -0 1 0 
1 0 20 0 0 0 1 
1 0 13 6 -0 1 0 
1 0 13 0 0 0 1 
1 0 0 0 -0 1 0 
1 0 7 0 0 0 1 
1 0 0 6 -0 1 0 
1 0 0 6 1 0 -0 
1 100 0 0 0 0 1 
1 0 0 20 1 0 -0 
1 0 20 20 1 0 -0 
1 100 0 20 -0 1 0 
1 0 20 6 1 0 -0 
1 100 20 0 0 0 1 
1 100 13 6 -0 1 0 
1 0 13 6 1 0 -0 
1 0 13 0 1 0 -0 
1 100 13 0 0 0 1 
1 100 0 0 -0 1 0 
1 0 7 0 1 0 -0 
1 100 7 0 0 0 1 
1 0 7 6 1 0 -0 
1 100 0 6 -0 1 0 
Polygon3D 0
PolygonOnTriangulations 0
Surfaces 18
1 0 0 0 1 0 -0 0 0 1 0 -1 0 
1 0 0 0 -0 1 0 0 0 1 1 0 -0 
1 0 0 20 0 0 1 1 0 -0 -0 1 0 
1 0 20 0 -0 1 0 0 0 1 1 0 -0 
1 0 13 0 1 0 -0 0 0 1 0 -1 0 
1 0 13 6 0 0 1 1 0 -0 -0 1 0 
1 0 13 0 -0 1 0 0 0 1 1 0 -0 
1 0 0 0 0 0 1 1 0 -0 -0 1 0 
1 0 0 0 1 0 -0 0 0 1 0 -1 0 
1 0 7 0 -0 1 0 0 0 1 1 0 -0 
1 0 0 6 0 0 1 1 0 -0 -0 1 0 
1 0 0 0 -0 1 0 0 0 1 1 0 -0 
1 100 0 0 1 0 -0 0 0 1 0 -1 0 
1 0 20 0 -0 1 0 0 0 1 1 0 -0 
1 100 13 0 1 0 -0 0 0 1 0 -1 0 
1 0 13 0 0 0 1 1 0 -0 -0 1 0 
1 0 0 0 0 0 1 1 0 -0 -0 1 0 
1 100 0 0 1 0 -0 0 0 1 0 -1 0 
Triangulations 0

TShapes 63
Ve
1e-07
0 0 6
0 0

0101101
*
Ve
1e-07
0 0 20
0 0

0101101
*
Ed
 1e-07 1 1 0
1  1 0 6 20
2  1 1 0 6 20
2  2 2 0 6 20
0

0101000
+63 0 -62 0 *
Ve
1e-07
0 20 20
0 0

0101101
*
Ed
 1e-07 1 1 0
1  2 0 0 20
2  3 1 0 0 20
2  4 3 0 0 20
0

0101000
-60 0 +62 0 *
Ve
1e-07
0 20 6
0 0

0101101
*
Ed
 1e-07 1 1 0
1  3 0 6 20
2  5 1 0 6 20
2  6 4 0 6 20
0

0101000
+58 0 -60 0 *
Ve
1e-07
0 13 6
0 0

0101101
*
Ed
 1e-07 1 1 0
1  4 0 0 7
2  7 5 0 0 7
2  8 6 0 0 7
2  9 1 0 0 7
0

0101000
-58 0 +56 0 *
Ve
1e-07
0 13 0
0 0

0101101
*
Ed
 1e-07 1 1 0
1  5 0 0 6
2  10 5 0 0 6
2  11 7 0 0 6
2  12 1 0 0 6
0

0101000
-56 0 +54 0 *
Ve
1e-07
0 7 0
0 0

0101101
*
Ed
 1e-07 1 1 0
1  6 0 7 13
2  13 1 0 7 13
2  14 8 0 7 13
0

0101000
+52 0 -54 0 *
Ve
1e-07
0 7 6
0 0

0101101
*
Ed
 1e-07 1 1 0
1  7 0 0 6
2  15 9 0 0 6
2  16 10 0 0 6
2  17 1 0 0 6
0

0101000
-50 0 +52 0 *
Ed
 1e-07 1 1 0
1  8 0 0 7
2  18 9 0 0 7
2  19 11 0 0 7
2  20 1 0 0 7
0

0101000
-50 0 +63 0 *
Wi

0101100
-61 0 -59 0 +57 0 +55 0 +53 0 +51 0 -49 0 +48 0 *
Fa
0  1e-07 1 0

0101000
+47 0 *
Ve
1e-07
100 0 6
0 0

0101101
*
Ed
 1e-07 1 1 0
1  9 0 0 100
2  21 12 0 0 100
2  22 11 0 0 100
2  23 2 0 0 100
0

0101000
-45 0 +63 0 *
Ve
1e-07
100 0 20
0 0

0101101
*
Ed
 1e-07 1 1 0
1  10 0 6 20
2  24 13 0 6 20
2  25 2 0 6 20
0

0101000
+45 0 -43 0 *
Ed
 1e-07 1 1 0
1  11 0 0 100
2  26 2 0 0 100
2  27 3 0 0 100
0

0101000
-43 0 +62 0 *
Wi

0101100
-44 0 -42 0 +41 0 +61 0 *
Fa
0  1e-07 2 0

0101000
+40 0 *
Ve
1e-07
100 20 20
0 0

0101101
*
Ed
 1e-07 1 1 0
1  12 0 0 100
2  28 4 0 0 100
2  29 3 0 0 100
0

0101000
-38 0 +60 0 *
Ed
 1e-07 1 1 0
1  13 0 0 20
2  30 13 0 0 20
2  31 3 0 0 20
0

0101000
-38 0 +43 0 *
Wi

0101100
-59 0 -37 0 +36 0 +41 0 *
Fa
0  1e-07 3 0

0111000
+35 0 *
Ve
1e-07
100 20 6
0 0

0101101
*
Ed
 1e-07 1 1 0
1  14 0 0 100
2  32 14 0 0 100
2  33 6 0 0 100
2  34 4 0 0 100
0

0101000
-33 0 +58 0 *
Ed
 1e-07 1 1 0
1  15 0 6 20
2  35 13 0 6 20
2  36 4 0 6 20
0

0101000
+33 0 -38 0 *
Wi

0101100
-32 0 -31 0 +37 0 +57 0 *
Fa
0  1e-07 4 0

0101000
+30 0 *
Ve
1e-07
100 13 6
0 0

0101101
*
Ed
 1e-07 1 1 0
1  16 0 0 7
2  37 15 0 0 7
2  38 6 0 0 7
2  39 13 0 0 7
0

0101000
-33 0 +28 0 *
Ed
 1e-07 1 1 0
1  17 0 0 100
2  40 7 0 0 100
2  41 6 0 0 100
0

0101000
-28 0 +56 0 *
Wi

0101100
-55 0 -32 0 +27 0 +26 0 *
Fa
0  1e-07 6 0

0111000
+25 0 *
Ve
1e-07
100 13 0
0 0

0101101
*
Ed
 1e-07 1 1 0
1  18 0 0 100
2  42 7 0 0 100
2  43 16 0 0 100
2  44 8 0 0 100
0

0101000
-23 0 +54 0 *
Ed
 1e-07 1 1 0
1  19 0 0 6
2  45 15 0 0 6
2  46 7 0 0 6
2  47 13 0 0 6
0

0101000
-28 0 +23 0 *
Wi

0101100
-22 0 -21 0 +26 0 +53 0 *
Fa
0  1e-07 7 0

0111000
+20 0 *
Ve
1e-07
100 7 0
0 0

0101101
*
Ed
 1e-07 1 1 0
1  20 0 7 13
2  48 13 0 7 13
2  49 8 0 7 13
0

0101000
+18 0 -23 0 *
Ed
 1e-07 1 1 0
1  21 0 0 100
2  50 10 0 0 100
2  51 17 0 0 100
2  52 8 0 0 100
0

0101000
-18 0 +52 0 *
Wi

0101100
-51 0 -22 0 +17 0 +16 0 *
Fa
0  1e-07 8 0

0101000
+15 0 *
Ve
1e-07
100 7 6
0 0

0101101
*
Ed
 1e-07 1 1 0
1  22 0 0 6
2  53 18 0 0 6
2  54 10 0 0 6
2  55 13 0 0 6
0

0101000
-13 0 +18 0 *
Ed
 1e-07 1 1 0
1  23 0 0 100
2  56 10 0 0 100
2  57 11 0 0 100
0

0101000
-13 0 +50 0 *
Wi

0101100
-16 0 -12 0 +11 0 +49 0 *
Fa
0  1e-07 10 0

0111000
+10 0 *
Ed
 1e-07 1 1 0
1  24 0 0 7
2  58 18 0 0 7
2  59 11 0 0 7
2  60 13 0 0 7
0

0101000
-13 0 +45 0 *
Wi

0101100
-48 0 -11 0 +8 0 +44 0 *
Fa
0  1e-07 11 0

0111000
+7 0 *
Wi

0101100
-42 0 -36 0 +31 0 +27 0 +21 0 +17 0 -12 0 +8 0 *
Fa
0  1e-07 13 0

0101000
+5 0 *
Sh

0101100
-46 0 -39 0 +34 0 +29 0 -24 0 +19 0 -14 0 -9 0 -6 0 +4 0 
*
So

0100000
+3 0 *
Co

1100000
+2 0 *

+1 0 